<?xml version="1.0" standalone="no"?>
<!DOCTYPE svg PUBLIC "-//W3C//DTD SVG 20010904//EN"
 "http://www.w3.org/TR/2001/REC-SVG-20010904/DTD/svg10.dtd">
<svg version="1.0" xmlns="http://www.w3.org/2000/svg"
 width="574.000000pt" height="542.000000pt" viewBox="0 0 574.000000 542.000000"
 preserveAspectRatio="xMidYMid meet">

<g transform="translate(0.000000,542.000000) scale(0.100000,-0.100000)"
fill="#000000" stroke="none">
<path d="M10 2710 l0 -2710 2860 0 2860 0 0 2710 0 2710 -1157 -1 -1158 0 90
-20 c200 -42 465 -134 638 -221 426 -213 820 -569 1065 -960 207 -331 334
-682 389 -1078 26 -190 23 -541 -6 -725 -12 -77 -26 -156 -31 -175 l-10 -35 5
40 c3 22 12 85 21 140 35 223 34 562 -2 787 -67 426 -247 850 -507 1197 -84
112 -312 345 -445 455 -463 381 -1083 600 -1692 595 -191 -2 -197 -14 -10 -22
384 -15 723 -104 1081 -283 118 -59 330 -191 345 -216 4 -6 -20 7 -52 29 -281
189 -647 326 -1025 384 -192 30 -553 32 -734 6 -545 -81 -999 -289 -1400 -640
-388 -340 -678 -864 -784 -1417 -43 -225 -55 -577 -26 -806 75 -601 331 -1129
754 -1552 212 -212 423 -363 696 -497 277 -136 495 -203 845 -261 25 -4 158
-10 295 -14 l250 -6 -200 -2 c-323 -3 -561 34 -863 133 -559 185 -1035 546
-1360 1035 -310 464 -454 938 -454 1490 0 338 52 629 167 945 52 141 53 154 5
50 -23 -49 -66 -162 -95 -250 -86 -257 -122 -457 -132 -730 -33 -906 404
-1757 1162 -2264 405 -271 862 -418 1360 -437 160 -6 335 4 490 28 67 11 75
14 50 20 -30 7 -29 7 5 5 19 0 40 1 45 4 6 4 46 12 90 19 149 23 412 113 586
200 280 141 502 308 741 559 404 421 647 958 708 1560 12 126 13 376 1 491
-21 197 -22 201 -6 121 34 -174 44 -463 25 -666 -55 -562 -262 -1057 -626
-1489 -111 -132 -169 -185 -379 -350 -208 -162 -364 -255 -596 -354 -220 -94
-458 -161 -704 -198 -162 -25 -570 -25 -728 -1 -503 77 -945 266 -1322 566
-120 96 -319 293 -416 414 -488 605 -694 1378 -568 2137 125 750 556 1408
1194 1822 178 115 360 206 541 269 127 44 389 119 504 144 l105 23 -1242 1
-1243 1 0 -2710z m3010 1540 c23 -23 24 -27 9 -86 -9 -34 -8 -51 1 -74 19 -46
83 -97 143 -115 84 -24 118 -3 176 112 32 65 53 83 94 83 51 0 70 -45 97 -227
29 -195 34 -179 -57 -192 -200 -27 -347 -36 -648 -35 -349 0 -425 9 -522 58
-64 32 -115 89 -111 124 5 40 53 62 161 72 51 5 101 12 110 16 15 5 17 -1 17
-45 0 -48 2 -51 25 -51 24 0 25 3 25 54 0 39 4 55 15 60 12 4 15 -3 15 -29 0
-31 3 -35 25 -35 23 0 25 4 25 45 0 25 2 45 4 45 2 0 11 3 20 6 13 5 16 -1 16
-30 0 -32 3 -36 25 -36 23 0 25 3 25 48 0 36 5 50 20 60 19 11 20 10 20 -33 0
-41 2 -45 25 -45 24 0 25 3 25 62 l0 63 72 72 c79 80 110 91 148 53z m-788
-473 c95 -71 178 -92 436 -108 212 -13 565 1 767 30 66 10 122 17 123 15 9 -7
-11 -41 -35 -58 -37 -27 -146 -34 -610 -38 -375 -3 -391 -2 -477 20 -185 47
-276 112 -276 199 l0 28 19 -31 c11 -18 34 -43 53 -57z m3195 -489 c-3 -8 -6
-5 -6 6 -1 11 2 17 5 13 3 -3 4 -12 1 -19z m10 -50 c-3 -7 -5 -2 -5 12 0 14 2
19 5 13 2 -7 2 -19 0 -25z m-2850 -2 c131 -35 191 -116 228 -307 34 -173 37
-1120 5 -1334 -29 -194 -88 -299 -192 -346 -44 -19 -71 -23 -158 -23 -121 -1
-172 12 -232 57 -85 64 -127 193 -149 449 -17 209 -6 1077 15 1185 47 243 140
331 351 332 44 1 104 -5 132 -13z m1825 -10 c109 -47 174 -165 193 -351 3 -33
8 -79 11 -102 l5 -43 -119 0 c-135 0 -132 -2 -132 78 0 66 -16 156 -35 195
-39 82 -143 73 -181 -15 -26 -62 -33 -352 -10 -431 21 -72 80 -137 198 -218
166 -113 223 -186 259 -330 19 -75 21 -102 16 -288 -5 -208 -14 -267 -52 -341
-23 -47 -72 -98 -115 -120 -82 -42 -243 -50 -345 -18 -64 20 -138 101 -163
178 -30 93 -41 155 -47 267 -3 54 -8 110 -10 126 l-4 27 123 0 123 0 6 -117
c8 -181 31 -244 93 -259 43 -11 102 13 120 48 20 40 38 220 31 323 -11 155
-51 219 -210 338 -215 161 -267 245 -282 457 -8 104 9 327 29 395 34 112 100
180 206 210 71 19 239 14 292 -9z m-2788 -21 c67 -25 128 -87 156 -161 45
-119 51 -193 57 -665 9 -748 -17 -955 -137 -1063 -64 -58 -111 -66 -372 -66
l-228 0 0 991 0 991 238 -4 c194 -4 246 -9 286 -23z m2126 -85 l0 -110 -125 0
-125 0 0 -880 0 -880 -120 0 -120 0 0 880 0 880 -125 0 -125 0 0 110 0 110
370 0 370 0 0 -110z m1697 68 c-3 -7 -5 -2 -5 12 0 14 2 19 5 13 2 -7 2 -19 0
-25z m100 -1010 c-3 -8 -6 -5 -6 6 -1 11 2 17 5 13 3 -3 4 -12 1 -19z m-12
-58 c-9 -41 -17 -33 -9 9 4 17 9 30 11 27 3 -2 2 -19 -2 -36z m-18 -62 c-3 -8
-6 -5 -6 6 -1 11 2 17 5 13 3 -3 4 -12 1 -19z m-23 -82 c-3 -15 -8 -25 -11
-23 -2 3 -1 17 3 31 3 15 8 25 11 23 2 -3 1 -17 -3 -31z m-33 -93 c-12 -20
-14 -14 -5 12 4 9 9 14 11 11 3 -2 0 -13 -6 -23z m-30 -80 c-12 -20 -14 -14
-5 12 4 9 9 14 11 11 3 -2 0 -13 -6 -23z m-2188 -1670 c-13 -2 -35 -2 -50 0
-16 2 -5 4 22 4 28 0 40 -2 28 -4z"/>
<path d="M2399 3045 c-68 -37 -79 -143 -79 -780 0 -521 7 -663 36 -735 36 -90
160 -97 203 -12 35 68 41 183 41 749 0 559 -6 666 -40 733 -29 57 -102 77
-161 45z"/>
<path d="M1340 2260 l0 -770 89 0 c109 0 132 14 158 98 16 52 18 113 18 667 0
658 -2 686 -52 746 -24 28 -27 29 -119 29 l-94 0 0 -770z"/>
</g>
</svg>
